<?xml version="1.0" encoding="UTF-8"?>
<!-- Created by Vectric (http://www.vectric.com/) -->
<svg width="59.42617304in" height="32.23118508in" viewBox="0 0 59.42617304 32.23118508" id="svg2" version="1.1" xmlns="http://www.w3.org/2000/svg" xmlns:xlink="http://www.w3.org/1999/xlink" xmlns:inkscape="http://www.inkscape.org/namespaces/inkscape">
    <g inkscape:groupmode="layer" id="85667243-1302-4a85-b3ac-c7bf39b332ec" inkscape:label="Toolpath Previews"/>
    <g inkscape:groupmode="layer" id="80870b07-bfc9-4f85-a763-64bcb1611ddd" inkscape:label="Cutout Thru Cut">
        <path style="fill:none;stroke-width:0.010000;stroke-linecap:round;stroke-linejoin:round;stroke-opacity:1;stroke:#4c0000;" d="M 33.906575,26.520091 L 36.413087,26.520090 L 36.821152,26.928174 A 0.130000,0.130000 0 0,0 37.005001,26.928176 L 37.413086,26.520091 L 42.413087,26.520090 L 42.821152,26.928174 A 0.130000,0.130000 0 0,0 43.005001,26.928176 L 43.413086,26.520091 L 48.413087,26.520091 L 48.821152,26.928174 A 0.130000,0.130000 0 0,0 49.005001,26.928176 L 49.413086,26.520091 L 54.413087,26.520090 L 54.821152,26.928174 A 0.130000,0.130000 0 0,0 55.005001,26.928176 L 55.413086,26.520091 L 56.663087,26.520091 L 56.663087,26.612301 A 0.200000,0.200000 0 0,0 56.721669,26.753725 L 57.071172,27.103211 A 0.130000,0.130000 0 0,1 57.071173,27.287061 L 56.663087,27.695145 L 56.316924,28.041305 L 56.316924,28.348997 L 56.604505,28.636564 A 0.200000,0.200000 0 0,1 56.663086,28.777988 L 56.663087,28.870158 L 2.663086,28.870172 L 2.663086,28.777989 A 0.200000,0.200000 0 0,0 2.604504,28.636565 L 2.316924,28.348998 L 2.316924,28.041306 L 2.663086,27.695145 L 3.071172,27.287062 A 0.130000,0.130000 0 0,0 3.071171,27.103212 L 2.721668,26.753725 A 0.200000,0.200000 0 0,1 2.663087,26.612302 L 2.663086,26.520091 L 6.413087,26.520090 L 6.821152,26.928174 A 0.130000,0.130000 0 0,0 7.005001,26.928176 L 7.413086,26.520091 L 12.413087,26.520090 L 12.821152,26.928174 A 0.130000,0.130000 0 0,0 13.005001,26.928176 L 13.413086,26.520091 L 18.413087,26.520090 L 18.821152,26.928174 A 0.130000,0.130000 0 0,0 19.005001,26.928176 L 19.413086,26.520091 L 24.413087,26.520090 L 24.821152,26.928174 A 0.130000,0.130000 0 0,0 25.005001,26.928176 L 25.413086,26.520091 L 30.413087,26.520090 L 30.821152,26.928174 A 0.130000,0.130000 0 0,0 31.005001,26.928176 L 31.413086,26.520091 L 33.906575,26.520091 "/>
        <path style="fill:none;stroke-width:0.010000;stroke-linecap:round;stroke-linejoin:round;stroke-opacity:1;stroke:#4c0000;" d="M 54.155182,31.111793 A 0.075000,0.075000 0 0,0 54.080182,31.186793 A 0.075000,0.075000 0 0,0 54.155182,31.261793 A 0.075000,0.075000 0 0,0 54.230182,31.186793 A 0.075000,0.075000 0 0,0 54.155182,31.111793 "/>
        <path style="fill:none;stroke-width:0.010000;stroke-linecap:round;stroke-linejoin:round;stroke-opacity:1;stroke:#4c0000;" d="M 54.155182,31.111793 A 0.075000,0.075000 0 0,0 54.080182,31.186793 A 0.075000,0.075000 0 0,0 54.155182,31.261793 A 0.075000,0.075000 0 0,0 54.230182,31.186793 A 0.075000,0.075000 0 0,0 54.155182,31.111793 "/>
        <path style="fill:none;stroke-width:0.010000;stroke-linecap:round;stroke-linejoin:round;stroke-opacity:1;stroke:#4c0000;" d="M 6.155182,31.111793 A 0.075000,0.075000 0 0,0 6.080182,31.186793 A 0.075000,0.075000 0 0,0 6.155182,31.261793 A 0.075000,0.075000 0 0,0 6.230182,31.186793 A 0.075000,0.075000 0 0,0 6.155182,31.111793 "/>
        <path style="fill:none;stroke-width:0.010000;stroke-linecap:round;stroke-linejoin:round;stroke-opacity:1;stroke:#4c0000;" d="M 12.155182,31.111793 A 0.075000,0.075000 0 0,0 12.080182,31.186793 A 0.075000,0.075000 0 0,0 12.155182,31.261793 A 0.075000,0.075000 0 0,0 12.230182,31.186793 A 0.075000,0.075000 0 0,0 12.155182,31.111793 "/>
        <path style="fill:none;stroke-width:0.010000;stroke-linecap:round;stroke-linejoin:round;stroke-opacity:1;stroke:#4c0000;" d="M 18.155182,31.111793 A 0.075000,0.075000 0 0,0 18.080182,31.186793 A 0.075000,0.075000 0 0,0 18.155182,31.261793 A 0.075000,0.075000 0 0,0 18.230182,31.186793 A 0.075000,0.075000 0 0,0 18.155182,31.111793 "/>
        <path style="fill:none;stroke-width:0.010000;stroke-linecap:round;stroke-linejoin:round;stroke-opacity:1;stroke:#4c0000;" d="M 24.155182,31.111793 A 0.075000,0.075000 0 0,0 24.080182,31.186793 A 0.075000,0.075000 0 0,0 24.155182,31.261793 A 0.075000,0.075000 0 0,0 24.230182,31.186793 A 0.075000,0.075000 0 0,0 24.155182,31.111793 "/>
        <path style="fill:none;stroke-width:0.010000;stroke-linecap:round;stroke-linejoin:round;stroke-opacity:1;stroke:#4c0000;" d="M 30.155182,31.111793 A 0.075000,0.075000 0 0,0 30.080182,31.186793 A 0.075000,0.075000 0 0,0 30.155182,31.261793 A 0.075000,0.075000 0 0,0 30.230182,31.186793 A 0.075000,0.075000 0 0,0 30.155182,31.111793 "/>
        <path style="fill:none;stroke-width:0.010000;stroke-linecap:round;stroke-linejoin:round;stroke-opacity:1;stroke:#4c0000;" d="M 36.155182,31.111793 A 0.075000,0.075000 0 0,0 36.080182,31.186793 A 0.075000,0.075000 0 0,0 36.155182,31.261793 A 0.075000,0.075000 0 0,0 36.230182,31.186793 A 0.075000,0.075000 0 0,0 36.155182,31.111793 "/>
        <path style="fill:none;stroke-width:0.010000;stroke-linecap:round;stroke-linejoin:round;stroke-opacity:1;stroke:#4c0000;" d="M 42.155182,31.111793 A 0.075000,0.075000 0 0,0 42.080182,31.186793 A 0.075000,0.075000 0 0,0 42.155182,31.261793 A 0.075000,0.075000 0 0,0 42.230182,31.186793 A 0.075000,0.075000 0 0,0 42.155182,31.111793 "/>
        <path style="fill:none;stroke-width:0.010000;stroke-linecap:round;stroke-linejoin:round;stroke-opacity:1;stroke:#4c0000;" d="M 48.155182,31.111793 A 0.075000,0.075000 0 0,0 48.080182,31.186793 A 0.075000,0.075000 0 0,0 48.155182,31.261793 A 0.075000,0.075000 0 0,0 48.230182,31.186793 A 0.075000,0.075000 0 0,0 48.155182,31.111793 "/>
        <path style="fill:none;stroke-width:0.010000;stroke-linecap:round;stroke-linejoin:round;stroke-opacity:1;stroke:#4c0000;" d="M 51.347290,31.153630 C 51.260400,31.146516 51.195868,31.131272 51.153693,31.107898 C 51.094242,31.074361 51.064516,31.020246 51.064516,30.945550 C 51.064516,30.869839 51.093480,30.807339 51.151406,30.758050 C 51.207301,30.710794 51.274120,30.687166 51.351864,30.687166 C 51.432656,30.687166 51.500238,30.710286 51.554608,30.756526 C 51.613043,30.805307 51.642260,30.869331 51.642260,30.948599 C 51.642260,31.077664 51.543937,31.146008 51.347290,31.153630 C 51.464160,31.168874 51.541904,31.186658 51.580522,31.206983 C 51.649120,31.244077 51.683419,31.310388 51.683419,31.405916 C 51.683419,31.497888 51.651152,31.572075 51.586620,31.628477 C 51.524628,31.681831 51.446884,31.708508 51.353388,31.708508 C 51.259384,31.708508 51.181640,31.681323 51.120156,31.626953 C 51.056132,31.570042 51.024120,31.495093 51.024120,31.402105 C 51.024120,31.307085 51.056132,31.242044 51.120156,31.206983 C 51.154201,31.188183 51.229912,31.170398 51.347290,31.153630 "/>
        <path style="fill:none;stroke-width:0.010000;stroke-linecap:round;stroke-linejoin:round;stroke-opacity:1;stroke:#4c0000;" d="M 57.720186,31.171160 L 57.720186,31.171160 C 57.699352,31.202664 57.643966,31.240774 57.554027,31.285489 C 57.464088,31.330205 57.398794,31.352563 57.358143,31.352563 C 57.268712,31.352563 57.196304,31.319788 57.140917,31.254239 C 57.088580,31.192756 57.062411,31.116282 57.062411,31.024819 C 57.062411,30.928274 57.090359,30.848498 57.146253,30.785489 C 57.204688,30.719941 57.281670,30.687166 57.377198,30.687166 C 57.503214,30.687166 57.595186,30.739504 57.653113,30.844178 C 57.697828,30.925987 57.720186,31.034981 57.720186,31.171160 C 57.720186,31.320550 57.697574,31.439961 57.652350,31.529392 C 57.592899,31.648802 57.496100,31.708508 57.361954,31.708508 C 57.283702,31.708508 57.219805,31.686658 57.170262,31.642959 C 57.120719,31.599260 57.090867,31.538538 57.080704,31.460794 "/>
        <path style="fill:none;stroke-width:0.010000;stroke-linecap:round;stroke-linejoin:round;stroke-opacity:1;stroke:#4c0000;" d="M 44.987718,30.702410 L 45.633298,30.702410 C 45.635330,30.702410 45.632917,30.713970 45.626057,30.737090 C 45.619197,30.760210 45.607129,30.787395 45.589852,30.818645 C 45.572576,30.849895 45.555173,30.880510 45.537642,30.910489 C 45.520112,30.940469 45.501565,30.974006 45.482002,31.011099 C 45.462439,31.048193 45.442749,31.083508 45.422932,31.117044 C 45.403115,31.150581 45.385203,31.187039 45.369197,31.226419 C 45.353191,31.265799 45.337058,31.309753 45.320798,31.358279 C 45.304537,31.406806 45.291707,31.451902 45.282307,31.493569 C 45.272906,31.535235 45.265920,31.578681 45.261346,31.623904 C 45.256773,31.669128 45.254555,31.691061 45.254487,31.691739 L 45.254487,31.691739 "/>
        <path style="fill:none;stroke-width:0.010000;stroke-linecap:round;stroke-linejoin:round;stroke-opacity:1;stroke:#4c0000;" d="M 38.991529,31.300733 C 39.031672,31.229595 39.081468,31.170652 39.140920,31.123904 C 39.210025,31.070042 39.280655,31.043111 39.352810,31.043111 C 39.441224,31.043111 39.513125,31.075632 39.568511,31.140672 C 39.621357,31.202156 39.647779,31.277613 39.647779,31.367044 C 39.647779,31.463081 39.619832,31.543111 39.563938,31.607136 C 39.505503,31.674717 39.429283,31.708508 39.335279,31.708508 C 39.103572,31.708508 38.987718,31.546922 38.987718,31.223752 C 38.987718,30.866028 39.107383,30.687166 39.346712,30.687166 C 39.425472,30.687166 39.489878,30.709270 39.539929,30.753477 C 39.589980,30.797685 39.620086,30.858660 39.630249,30.936404 "/>
        <path style="fill:none;stroke-width:0.010000;stroke-linecap:round;stroke-linejoin:round;stroke-opacity:1;stroke:#4c0000;" d="M 33.645309,30.702410 L 33.145309,30.702410 L 33.058419,31.229849 C 33.058419,31.227817 33.065405,31.220449 33.079379,31.207746 C 33.093352,31.195042 33.110756,31.181704 33.131589,31.167730 C 33.152423,31.153757 33.172748,31.140418 33.192565,31.127715 C 33.212382,31.115012 33.232580,31.104595 33.253159,31.096465 C 33.273739,31.088335 33.294445,31.080840 33.315278,31.073980 C 33.336112,31.067121 33.358723,31.061912 33.383114,31.058355 C 33.407504,31.054798 33.437102,31.057085 33.471909,31.065215 C 33.506716,31.073345 33.536823,31.083762 33.562230,31.096465 C 33.587636,31.109168 33.610121,31.128858 33.629684,31.155535 C 33.649247,31.182212 33.664872,31.212827 33.676559,31.247380 C 33.688246,31.281933 33.694089,31.314326 33.694089,31.344560 C 33.694089,31.374793 33.690659,31.407187 33.683800,31.441739 C 33.676940,31.476292 33.666523,31.505129 33.652550,31.528249 C 33.638576,31.551369 33.617108,31.577410 33.588144,31.606374 C 33.559181,31.635337 33.530217,31.657822 33.501254,31.673828 C 33.472290,31.689834 33.437611,31.700251 33.397214,31.705078 C 33.356818,31.709905 33.320995,31.710032 33.289745,31.705459 C 33.258495,31.700886 33.224958,31.691104 33.189135,31.676114 C 33.153312,31.661125 33.123205,31.638513 33.098815,31.608279 C 33.074425,31.578045 33.057021,31.548574 33.046605,31.519864 C 33.036188,31.491155 33.029836,31.469178 33.027550,31.453935 C 33.025263,31.438691 33.024154,31.431297 33.024120,31.431069 L 33.024120,31.431069 "/>
        <path style="fill:none;stroke-width:0.010000;stroke-linecap:round;stroke-linejoin:round;stroke-opacity:1;stroke:#4c0000;" d="M 27.570064,31.448599 L 26.897046,31.448599 L 27.462595,30.681831 L 27.462595,31.694788 "/>
        <path style="fill:none;stroke-width:0.010000;stroke-linecap:round;stroke-linejoin:round;stroke-opacity:1;stroke:#4c0000;" d="M 20.987718,31.431069 C 21.014649,31.616028 21.120848,31.708508 21.306316,31.708508 C 21.387617,31.708508 21.462566,31.681831 21.531163,31.628477 C 21.602810,31.572075 21.639141,31.505256 21.640157,31.428020 C 21.641174,31.310642 21.613989,31.232390 21.558602,31.193264 C 21.518460,31.164300 21.443257,31.149819 21.332993,31.149819 C 21.320289,31.149819 21.297932,31.150073 21.265920,31.150581 C 21.241021,31.150581 21.217139,31.150581 21.194273,31.150581 L 21.452657,31.150581 C 21.544121,31.109422 21.589852,31.040063 21.589852,30.942502 C 21.589852,30.868315 21.561397,30.806831 21.504487,30.758050 C 21.450625,30.711302 21.386092,30.687928 21.310889,30.687928 C 21.176743,30.687928 21.083501,30.739504 21.031163,30.842654 C 21.019476,30.866536 21.009060,30.900581 20.999913,30.944788 "/>
        <path style="fill:none;stroke-width:0.010000;stroke-linecap:round;stroke-linejoin:round;stroke-opacity:1;stroke:#4c0000;" d="M 14.993088,30.976800 C 15.002234,30.920906 15.013794,30.877969 15.027768,30.847989 C 15.041742,30.818010 15.060288,30.793238 15.083408,30.773675 C 15.106528,30.754112 15.134856,30.736201 15.168393,30.719941 C 15.201930,30.703681 15.234323,30.693772 15.265573,30.690215 C 15.296823,30.686658 15.329216,30.686658 15.362753,30.690215 C 15.396289,30.693772 15.428174,30.700759 15.458408,30.711175 C 15.488642,30.721592 15.518113,30.739504 15.546823,30.764910 C 15.575532,30.790317 15.596874,30.819788 15.610847,30.853325 C 15.624821,30.886861 15.631808,30.922176 15.631808,30.959270 C 15.631808,30.996363 15.626599,31.029900 15.616183,31.059880 C 15.605766,31.089859 15.586076,31.118188 15.557112,31.144864 C 15.528149,31.171541 15.496899,31.194153 15.463362,31.212700 C 15.429826,31.231247 15.394003,31.248015 15.355893,31.263005 C 15.317783,31.277995 15.287168,31.290698 15.264048,31.301114 C 15.240929,31.311531 15.214887,31.326648 15.185923,31.346465 C 15.156960,31.366282 15.127361,31.392959 15.097128,31.426496 C 15.066894,31.460032 15.042631,31.491790 15.024338,31.521770 C 15.006045,31.551750 14.992834,31.582364 14.984704,31.613614 C 14.976574,31.644864 14.972509,31.665063 14.972509,31.674209 C 14.972509,31.683355 14.971238,31.689199 14.968698,31.691739 L 15.638667,31.691739 "/>
        <path style="fill:none;stroke-width:0.010000;stroke-linecap:round;stroke-linejoin:round;stroke-opacity:1;stroke:#4c0000;" d="M 9.235871,30.821305 L 9.424133,30.691732 L 9.424133,31.691732 "/>
        <path style="fill:none;stroke-width:0.010000;stroke-linecap:round;stroke-linejoin:round;stroke-opacity:1;stroke:#4c0000;" d="M 4.824223,30.799718 L 4.824223,31.573189 L 4.824223,30.799718 "/>
        <path style="fill:none;stroke-width:0.010000;stroke-linecap:round;stroke-linejoin:round;stroke-opacity:1;stroke:#4c0000;" d="M 5.044120,31.573189 L 5.044120,30.796181 L 5.671975,31.574957 L 5.671975,30.790875 "/>
        <path style="fill:none;stroke-width:0.010000;stroke-linecap:round;stroke-linejoin:round;stroke-opacity:1;stroke:#4c0000;" d="M 6.490841,31.327942 C 6.470010,31.409298 6.432477,31.472378 6.378239,31.517183 C 6.322823,31.563167 6.253651,31.586158 6.170723,31.586158 C 6.011155,31.586158 5.903466,31.520130 5.847657,31.388074 C 5.820538,31.324012 5.806979,31.254839 5.806979,31.180558 C 5.806979,31.013916 5.866129,30.898170 5.984429,30.833321 C 6.041418,30.801879 6.103909,30.786158 6.171902,30.786158 C 6.248541,30.786158 6.313390,30.805515 6.366449,30.844228 C 6.419507,30.882941 6.456647,30.938848 6.477871,31.011951 "/>
        <path style="fill:none;stroke-width:0.010000;stroke-linecap:round;stroke-linejoin:round;stroke-opacity:1;stroke:#4c0000;" d="M 6.618180,30.799718 L 6.618180,31.573189 L 6.618180,31.208266 L 7.224813,31.208266 L 7.224813,31.573189 L 7.224813,30.799718 "/>
        <path style="fill:none;stroke-width:0.010000;stroke-linecap:round;stroke-linejoin:round;stroke-opacity:1;stroke:#4c0000;" d="M 36.333654,29.881078 L 33.830010,29.881079 L 33.421925,30.289164 A 0.130000,0.130000 0 0,1 33.238076,30.289162 L 32.830011,29.881077 L 27.830010,29.881079 L 27.421925,30.289164 A 0.130000,0.130000 0 0,1 27.238076,30.289162 L 26.830011,29.881077 L 21.830010,29.881079 L 21.421925,30.289164 A 0.130000,0.130000 0 0,1 21.238076,30.289162 L 20.830011,29.881077 L 15.830010,29.881079 L 15.421925,30.289164 A 0.130000,0.130000 0 0,1 15.238076,30.289162 L 14.830011,29.881077 L 9.830010,29.881079 L 9.421925,30.289164 A 0.130000,0.130000 0 0,1 9.238076,30.289162 L 8.830011,29.881077 L 0.000000,29.881078 L 0.000000,31.731078 A 0.500000,0.500000 0 0,0 0.500000,32.231078 L 59.080010,32.231185 L 59.080010,32.138976 A 0.200000,0.200000 0 0,0 59.021428,31.997552 L 58.671925,31.648066 A 0.130000,0.130000 0 0,1 58.671924,31.464216 L 59.080010,31.056132 L 59.426173,30.709972 L 59.426173,30.402280 L 59.138593,30.114712 A 0.200000,0.200000 0 0,1 59.080011,29.973289 L 59.080010,29.881078 L 57.830010,29.881079 L 57.421925,30.289164 A 0.130000,0.130000 0 0,1 57.238076,30.289162 L 56.830011,29.881077 L 51.830010,29.881079 L 51.421925,30.289164 A 0.130000,0.130000 0 0,1 51.238076,30.289162 L 50.830011,29.881078 L 45.830010,29.881079 L 45.421925,30.289164 A 0.130000,0.130000 0 0,1 45.238076,30.289162 L 44.830011,29.881077 L 39.830010,29.881079 L 39.421925,30.289164 A 0.130000,0.130000 0 0,1 39.238076,30.289162 L 38.830011,29.881077 L 36.333654,29.881078 "/>
        <path style="fill:none;stroke-width:0.010000;stroke-linecap:round;stroke-linejoin:round;stroke-opacity:1;stroke:#4c0000;" d="M 22.128950,17.570914 A 0.750000,0.750000 0 0,0 21.378950,16.820914 L 9.718941,16.820916 L 9.310875,17.228999 A 0.130000,0.130000 0 0,1 9.127025,17.229000 L 8.718942,16.820914 L 4.081884,16.820914 A 0.749997,0.749997 0 0,0 3.331885,17.570909 L 3.331885,24.070914 A 0.750000,0.750000 0 0,0 4.081885,24.820914 L 8.458942,24.820914 A 0.130000,0.130000 0 0,1 8.718942,24.820914 L 9.090413,25.192388 A 0.125000,0.125000 0 0,0 9.178802,25.229000 L 9.259097,25.228999 A 0.125000,0.125000 0 0,0 9.347487,25.192386 L 9.718941,24.820916 A 0.130000,0.130000 0 0,1 9.978941,24.820916 L 21.378950,24.820914 A 0.750000,0.750000 0 0,0 22.128950,24.070914 L 22.128950,17.570914 "/>
        <path style="fill:none;stroke-width:0.010000;stroke-linecap:round;stroke-linejoin:round;stroke-opacity:1;stroke:#4c0000;" d="M 22.128949,0.750000 L 22.128950,15.250000 A 0.750000,0.750000 0 0,1 21.378950,16.000000 L 9.978941,16.000001 A 0.130000,0.130000 0 0,0 9.718941,16.000001 L 9.347487,16.371472 A 0.125000,0.125000 0 0,1 9.259097,16.408085 L 9.178802,16.408085 A 0.125000,0.125000 0 0,1 9.090413,16.371473 L 8.718942,16.000000 A 0.130000,0.130000 0 0,0 8.458942,16.000000 L 4.081885,16.000000 A 0.750000,0.750000 0 0,1 3.331885,15.250000 L 3.331884,0.749999 A 0.749999,0.749999 0 0,1 4.081884,0.000000 L 8.718942,0.000000 L 9.127025,0.408086 A 0.130000,0.130000 0 0,0 9.310875,0.408085 L 9.718941,0.000002 L 21.378950,0.000000 A 0.750000,0.750000 0 0,1 22.128949,0.750000 "/>
        <path style="fill:none;stroke-width:0.010000;stroke-linecap:round;stroke-linejoin:round;stroke-opacity:1;stroke:#4c0000;" d="M 45.699707,9.271929 L 45.699708,23.771929 A 0.750000,0.750000 0 0,1 44.949707,24.521929 L 33.549699,24.521930 A 0.130000,0.130000 0 0,0 33.289699,24.521930 L 32.918245,24.893400 A 0.125000,0.125000 0 0,1 32.829855,24.930014 L 32.749560,24.930014 A 0.125000,0.125000 0 0,1 32.661171,24.893402 L 32.289700,24.521929 A 0.130000,0.130000 0 0,0 32.029700,24.521929 L 27.652643,24.521929 A 0.750000,0.750000 0 0,1 26.902643,23.771929 L 26.902642,9.271928 A 0.749999,0.749999 0 0,1 27.652642,8.521929 L 32.289699,8.521929 L 32.697783,8.930015 A 0.130000,0.130000 0 0,0 32.881633,8.930014 L 33.289698,8.521930 L 44.949707,8.521929 A 0.750000,0.750000 0 0,1 45.699707,9.271929 "/>
        <path style="fill:none;stroke-width:0.010000;stroke-linecap:round;stroke-linejoin:round;stroke-opacity:1;stroke:#4c0000;" d="M 12.209584,6.750000 L 13.251251,6.750000 L 12.730417,6.750000 L 12.730417,9.250000 L 12.209584,9.250000 L 13.251251,9.250000 "/>
        <path style="fill:none;stroke-width:0.010000;stroke-linecap:round;stroke-linejoin:round;stroke-opacity:1;stroke:#4c0000;" d="M 12.209584,19.570913 L 13.251251,19.570913 L 12.730417,19.570913 L 12.730417,22.070913 L 12.209584,22.070913 L 13.251251,22.070913 "/>
        <path style="fill:none;stroke-width:0.010000;stroke-linecap:round;stroke-linejoin:round;stroke-opacity:1;stroke:#4c0000;" d="M 35.780342,15.271929 L 36.822008,15.271929 L 36.301175,15.271929 L 36.301175,17.771929 L 35.780342,17.771929 L 36.822008,17.771929 "/>
    </g>
    <g inkscape:groupmode="layer" id="1ce0e80f-7532-479a-8bbc-8ca9b70839ca" inkscape:label="dimples">
        <path style="fill:none;stroke-width:0.010000;stroke-linecap:round;stroke-linejoin:round;stroke-opacity:1;stroke:#ff0000;" d="M 9.913087,27.620154 A 0.075000,0.075000 0 0,0 9.838087,27.695154 A 0.075000,0.075000 0 0,0 9.913087,27.770154 A 0.075000,0.075000 0 0,0 9.988087,27.695154 A 0.075000,0.075000 0 0,0 9.913087,27.620154 "/>
        <path style="fill:none;stroke-width:0.010000;stroke-linecap:round;stroke-linejoin:round;stroke-opacity:1;stroke:#ff0000;" d="M 15.913087,27.620154 A 0.075000,0.075000 0 0,0 15.838087,27.695154 A 0.075000,0.075000 0 0,0 15.913087,27.770154 A 0.075000,0.075000 0 0,0 15.988087,27.695154 A 0.075000,0.075000 0 0,0 15.913087,27.620154 "/>
        <path style="fill:none;stroke-width:0.010000;stroke-linecap:round;stroke-linejoin:round;stroke-opacity:1;stroke:#ff0000;" d="M 21.913087,27.620154 A 0.075000,0.075000 0 0,0 21.838087,27.695154 A 0.075000,0.075000 0 0,0 21.913087,27.770154 A 0.075000,0.075000 0 0,0 21.988087,27.695154 A 0.075000,0.075000 0 0,0 21.913087,27.620154 "/>
        <path style="fill:none;stroke-width:0.010000;stroke-linecap:round;stroke-linejoin:round;stroke-opacity:1;stroke:#ff0000;" d="M 27.913087,27.620154 A 0.075000,0.075000 0 0,0 27.838087,27.695154 A 0.075000,0.075000 0 0,0 27.913087,27.770154 A 0.075000,0.075000 0 0,0 27.988087,27.695154 A 0.075000,0.075000 0 0,0 27.913087,27.620154 "/>
        <path style="fill:none;stroke-width:0.010000;stroke-linecap:round;stroke-linejoin:round;stroke-opacity:1;stroke:#ff0000;" d="M 33.913087,27.620154 A 0.075000,0.075000 0 0,0 33.838087,27.695154 A 0.075000,0.075000 0 0,0 33.913087,27.770154 A 0.075000,0.075000 0 0,0 33.988087,27.695154 A 0.075000,0.075000 0 0,0 33.913087,27.620154 "/>
        <path style="fill:none;stroke-width:0.010000;stroke-linecap:round;stroke-linejoin:round;stroke-opacity:1;stroke:#ff0000;" d="M 39.913087,27.620154 A 0.075000,0.075000 0 0,0 39.838087,27.695154 A 0.075000,0.075000 0 0,0 39.913087,27.770154 A 0.075000,0.075000 0 0,0 39.988087,27.695154 A 0.075000,0.075000 0 0,0 39.913087,27.620154 "/>
        <path style="fill:none;stroke-width:0.010000;stroke-linecap:round;stroke-linejoin:round;stroke-opacity:1;stroke:#ff0000;" d="M 45.913087,27.620154 A 0.075000,0.075000 0 0,0 45.838087,27.695154 A 0.075000,0.075000 0 0,0 45.913087,27.770154 A 0.075000,0.075000 0 0,0 45.988087,27.695154 A 0.075000,0.075000 0 0,0 45.913087,27.620154 "/>
        <path style="fill:none;stroke-width:0.010000;stroke-linecap:round;stroke-linejoin:round;stroke-opacity:1;stroke:#ff0000;" d="M 51.913087,27.620154 A 0.075000,0.075000 0 0,0 51.838087,27.695154 A 0.075000,0.075000 0 0,0 51.913087,27.770154 A 0.075000,0.075000 0 0,0 51.988087,27.695154 A 0.075000,0.075000 0 0,0 51.913087,27.620154 "/>
        <path style="fill:none;stroke-width:0.010000;stroke-linecap:round;stroke-linejoin:round;stroke-opacity:1;stroke:#ff0000;" d="M 3.738258,27.750806 A 0.075000,0.075000 0 0,0 3.663258,27.825806 A 0.075000,0.075000 0 0,0 3.738258,27.900806 A 0.075000,0.075000 0 0,0 3.813258,27.825806 A 0.075000,0.075000 0 0,0 3.738258,27.750806 "/>
        <path style="fill:none;stroke-width:0.010000;stroke-linecap:round;stroke-linejoin:round;stroke-opacity:1;stroke:#ff0000;" d="M 6.155182,31.111793 A 0.075000,0.075000 0 0,0 6.080182,31.186793 A 0.075000,0.075000 0 0,0 6.155182,31.261793 A 0.075000,0.075000 0 0,0 6.230182,31.186793 A 0.075000,0.075000 0 0,0 6.155182,31.111793 "/>
        <path style="fill:none;stroke-width:0.010000;stroke-linecap:round;stroke-linejoin:round;stroke-opacity:1;stroke:#ff0000;" d="M 12.155182,31.111793 A 0.075000,0.075000 0 0,0 12.080182,31.186793 A 0.075000,0.075000 0 0,0 12.155182,31.261793 A 0.075000,0.075000 0 0,0 12.230182,31.186793 A 0.075000,0.075000 0 0,0 12.155182,31.111793 "/>
        <path style="fill:none;stroke-width:0.010000;stroke-linecap:round;stroke-linejoin:round;stroke-opacity:1;stroke:#ff0000;" d="M 18.155182,31.111793 A 0.075000,0.075000 0 0,0 18.080182,31.186793 A 0.075000,0.075000 0 0,0 18.155182,31.261793 A 0.075000,0.075000 0 0,0 18.230182,31.186793 A 0.075000,0.075000 0 0,0 18.155182,31.111793 "/>
        <path style="fill:none;stroke-width:0.010000;stroke-linecap:round;stroke-linejoin:round;stroke-opacity:1;stroke:#ff0000;" d="M 24.155182,31.111793 A 0.075000,0.075000 0 0,0 24.080182,31.186793 A 0.075000,0.075000 0 0,0 24.155182,31.261793 A 0.075000,0.075000 0 0,0 24.230182,31.186793 A 0.075000,0.075000 0 0,0 24.155182,31.111793 "/>
        <path style="fill:none;stroke-width:0.010000;stroke-linecap:round;stroke-linejoin:round;stroke-opacity:1;stroke:#ff0000;" d="M 30.155182,31.111793 A 0.075000,0.075000 0 0,0 30.080182,31.186793 A 0.075000,0.075000 0 0,0 30.155182,31.261793 A 0.075000,0.075000 0 0,0 30.230182,31.186793 A 0.075000,0.075000 0 0,0 30.155182,31.111793 "/>
        <path style="fill:none;stroke-width:0.010000;stroke-linecap:round;stroke-linejoin:round;stroke-opacity:1;stroke:#ff0000;" d="M 36.155182,31.111793 A 0.075000,0.075000 0 0,0 36.080182,31.186793 A 0.075000,0.075000 0 0,0 36.155182,31.261793 A 0.075000,0.075000 0 0,0 36.230182,31.186793 A 0.075000,0.075000 0 0,0 36.155182,31.111793 "/>
        <path style="fill:none;stroke-width:0.010000;stroke-linecap:round;stroke-linejoin:round;stroke-opacity:1;stroke:#ff0000;" d="M 42.155182,31.111793 A 0.075000,0.075000 0 0,0 42.080182,31.186793 A 0.075000,0.075000 0 0,0 42.155182,31.261793 A 0.075000,0.075000 0 0,0 42.230182,31.186793 A 0.075000,0.075000 0 0,0 42.155182,31.111793 "/>
        <path style="fill:none;stroke-width:0.010000;stroke-linecap:round;stroke-linejoin:round;stroke-opacity:1;stroke:#ff0000;" d="M 48.155182,31.111793 A 0.075000,0.075000 0 0,0 48.080182,31.186793 A 0.075000,0.075000 0 0,0 48.155182,31.261793 A 0.075000,0.075000 0 0,0 48.230182,31.186793 A 0.075000,0.075000 0 0,0 48.155182,31.111793 "/>
    </g>
    <g inkscape:groupmode="layer" id="9f5551df-7b9b-41a6-a89a-1923af071f48" inkscape:label="text cut with 60 deg vbit">
        <path style="fill:none;stroke-width:0.010000;stroke-linecap:round;stroke-linejoin:round;stroke-opacity:1;stroke:#800080;" d="M 24.920801,28.168100 C 24.947732,28.353059 25.053931,28.445539 25.239399,28.445539 C 25.320699,28.445539 25.395649,28.418862 25.464246,28.365508 C 25.535892,28.309106 25.572224,28.242287 25.573240,28.165051 C 25.574256,28.047673 25.547071,27.969421 25.491685,27.930295 C 25.451543,27.901331 25.376340,27.886850 25.266075,27.886850 C 25.253372,27.886850 25.231014,27.887104 25.199002,27.887612 C 25.174104,27.887612 25.150222,27.887612 25.127356,27.887612 L 25.385740,27.887612 C 25.477203,27.846453 25.522935,27.777093 25.522935,27.679532 C 25.522935,27.605345 25.494480,27.543862 25.437569,27.495081 C 25.383707,27.448333 25.319175,27.424959 25.243972,27.424959 C 25.109825,27.424959 25.016583,27.476534 24.964246,27.579685 C 24.952559,27.603567 24.942142,27.637612 24.932996,27.681819 "/>
        <path style="fill:none;stroke-width:0.010000;stroke-linecap:round;stroke-linejoin:round;stroke-opacity:1;stroke:#800080;" d="M 42.916990,28.037764 C 42.957132,27.966626 43.006929,27.907683 43.066380,27.860935 C 43.135486,27.807073 43.206116,27.780142 43.278270,27.780142 C 43.366685,27.780142 43.438586,27.812663 43.493972,27.877703 C 43.546817,27.939187 43.573240,28.014644 43.573240,28.104075 C 43.573240,28.200112 43.545293,28.280142 43.489399,28.344167 C 43.430964,28.411748 43.354744,28.445539 43.260740,28.445539 C 43.029033,28.445539 42.913179,28.283953 42.913179,27.960782 C 42.913179,27.603059 43.032844,27.424197 43.272173,27.424197 C 43.350933,27.424197 43.415339,27.446301 43.465389,27.490508 C 43.515440,27.534715 43.545547,27.595691 43.555710,27.673435 "/>
        <path style="fill:none;stroke-width:0.010000;stroke-linecap:round;stroke-linejoin:round;stroke-opacity:1;stroke:#800080;" d="M 48.927661,27.439441 L 49.573240,27.439441 C 49.575273,27.439441 49.572859,27.451001 49.565999,27.474121 C 49.559139,27.497241 49.547071,27.524426 49.529795,27.555676 C 49.512518,27.586926 49.495115,27.617541 49.477585,27.647520 C 49.460054,27.677500 49.441507,27.711037 49.421944,27.748130 C 49.402381,27.785224 49.382691,27.820539 49.362874,27.854075 C 49.343057,27.887612 49.325145,27.924070 49.309139,27.963450 C 49.293133,28.002830 49.277000,28.046783 49.260740,28.095310 C 49.244480,28.143836 49.231650,28.188933 49.222249,28.230600 C 49.212849,28.272266 49.205862,28.315711 49.201289,28.360935 C 49.196716,28.406158 49.192356,28.428770 49.194429,28.428770 "/>
        <path style="fill:none;stroke-width:0.010000;stroke-linecap:round;stroke-linejoin:round;stroke-opacity:1;stroke:#800080;" d="M 55.240923,27.890661 C 55.154033,27.883547 55.089500,27.868303 55.047325,27.844929 C 54.987874,27.811392 54.958149,27.757276 54.958149,27.682581 C 54.958149,27.606870 54.987112,27.544370 55.045039,27.495081 C 55.100933,27.447825 55.167752,27.424197 55.245496,27.424197 C 55.326289,27.424197 55.393870,27.447317 55.448240,27.493557 C 55.506675,27.542337 55.535892,27.606362 55.535892,27.685630 C 55.535892,27.814695 55.437569,27.883039 55.240923,27.890661 C 55.357793,27.905904 55.435537,27.923689 55.474155,27.944014 C 55.542752,27.981108 55.577051,28.047419 55.577051,28.142947 C 55.577051,28.234919 55.544785,28.309106 55.480252,28.365508 C 55.418260,28.418862 55.340516,28.445539 55.247020,28.445539 C 55.153016,28.445539 55.075273,28.418354 55.013789,28.363984 C 54.949764,28.307073 54.917752,28.232124 54.917752,28.139136 C 54.917752,28.044116 54.949764,27.979075 55.013789,27.944014 C 55.047833,27.925213 55.123545,27.907429 55.240923,27.890661 "/>
        <path style="fill:none;stroke-width:0.010000;stroke-linecap:round;stroke-linejoin:round;stroke-opacity:1;stroke:#800080;" d="M 12.415466,27.558343 L 12.603728,27.428770 L 12.603728,28.428770 "/>
        <path style="fill:none;stroke-width:0.010000;stroke-linecap:round;stroke-linejoin:round;stroke-opacity:1;stroke:#800080;" d="M 13.192905,27.558343 L 13.381167,27.428770 L 13.381167,28.428770 "/>
        <path style="fill:none;stroke-width:0.010000;stroke-linecap:round;stroke-linejoin:round;stroke-opacity:1;stroke:#800080;" d="M 18.415466,27.558343 L 18.603728,27.428770 L 18.603728,28.428770 "/>
        <path style="fill:none;stroke-width:0.010000;stroke-linecap:round;stroke-linejoin:round;stroke-opacity:1;stroke:#800080;" d="M 18.923850,27.713831 C 18.932996,27.657937 18.944556,27.615000 18.958530,27.585020 C 18.972503,27.555041 18.991050,27.530269 19.014170,27.510706 C 19.037290,27.491143 19.065618,27.473232 19.099155,27.456971 C 19.132691,27.440711 19.165085,27.430803 19.196335,27.427246 C 19.227585,27.423689 19.259978,27.423689 19.293514,27.427246 C 19.327051,27.430803 19.358936,27.437790 19.389170,27.448206 C 19.419404,27.458623 19.448875,27.476534 19.477585,27.501941 C 19.506294,27.527348 19.527635,27.556819 19.541609,27.590356 C 19.555582,27.623892 19.562569,27.659207 19.562569,27.696301 C 19.562569,27.733394 19.557361,27.766931 19.546944,27.796911 C 19.536528,27.826890 19.516838,27.855218 19.487874,27.881895 C 19.458911,27.908572 19.427661,27.931184 19.394124,27.949731 C 19.360588,27.968277 19.324764,27.985046 19.286655,28.000036 C 19.248545,28.015025 19.217930,28.027729 19.194810,28.038145 C 19.171690,28.048562 19.145649,28.063679 19.116685,28.083496 C 19.087722,28.103313 19.058123,28.129990 19.027889,28.163526 C 18.997656,28.197063 18.973392,28.228821 18.955100,28.258801 C 18.936807,28.288780 18.923596,28.319395 18.915466,28.350645 C 18.907336,28.381895 18.903270,28.402093 18.903270,28.411240 C 18.903270,28.420386 18.902000,28.426230 18.899460,28.428770 L 19.569429,28.428770 "/>
        <path style="fill:none;stroke-width:0.010000;stroke-linecap:round;stroke-linejoin:round;stroke-opacity:1;stroke:#800080;" d="M 24.415466,27.558343 L 24.603728,27.428770 L 24.603728,28.428770 "/>
        <path style="fill:none;stroke-width:0.010000;stroke-linecap:round;stroke-linejoin:round;stroke-opacity:1;stroke:#800080;" d="M 30.415466,27.558343 L 30.603728,27.428770 L 30.603728,28.428770 "/>
        <path style="fill:none;stroke-width:0.010000;stroke-linecap:round;stroke-linejoin:round;stroke-opacity:1;stroke:#800080;" d="M 31.538179,28.185630 L 30.865161,28.185630 L 31.430710,27.418862 L 31.430710,28.431819 "/>
        <path style="fill:none;stroke-width:0.010000;stroke-linecap:round;stroke-linejoin:round;stroke-opacity:1;stroke:#800080;" d="M 36.415466,27.558343 L 36.603728,27.428770 L 36.603728,28.428770 "/>
        <path style="fill:none;stroke-width:0.010000;stroke-linecap:round;stroke-linejoin:round;stroke-opacity:1;stroke:#800080;" d="M 37.538179,27.439441 L 37.038179,27.439441 L 36.951289,27.966880 C 36.951289,27.964848 36.958276,27.957480 36.972249,27.944776 C 36.986223,27.932073 37.003626,27.918735 37.024460,27.904761 C 37.045293,27.890788 37.065618,27.877449 37.085435,27.864746 C 37.105252,27.852043 37.125450,27.841626 37.146030,27.833496 C 37.166609,27.825366 37.187315,27.817871 37.208149,27.811011 C 37.228982,27.804151 37.251594,27.798943 37.275984,27.795386 C 37.300374,27.791829 37.329973,27.794116 37.364780,27.802246 C 37.399587,27.810376 37.429693,27.820793 37.455100,27.833496 C 37.480506,27.846199 37.502991,27.865889 37.522554,27.892566 C 37.542117,27.919243 37.557742,27.949858 37.569429,27.984411 C 37.581116,28.018963 37.586960,28.051357 37.586960,28.081590 C 37.586960,28.111824 37.583530,28.144217 37.576670,28.178770 C 37.569810,28.213323 37.559393,28.242159 37.545420,28.265279 C 37.531446,28.288399 37.509978,28.314441 37.481014,28.343404 C 37.452051,28.372368 37.423088,28.394853 37.394124,28.410859 C 37.365161,28.426865 37.330481,28.437281 37.290085,28.442109 C 37.249688,28.446936 37.213865,28.447063 37.182615,28.442490 C 37.151365,28.437917 37.117828,28.428135 37.082005,28.413145 C 37.046182,28.398155 37.016075,28.375544 36.991685,28.345310 C 36.967295,28.315076 36.949891,28.285605 36.939475,28.256895 C 36.929058,28.228186 36.922706,28.206209 36.920420,28.190965 C 36.918133,28.175721 36.918543,28.173895 36.916990,28.168100 "/>
        <path style="fill:none;stroke-width:0.010000;stroke-linecap:round;stroke-linejoin:round;stroke-opacity:1;stroke:#800080;" d="M 42.415466,27.558343 L 42.603728,27.428770 L 42.603728,28.428770 "/>
        <path style="fill:none;stroke-width:0.010000;stroke-linecap:round;stroke-linejoin:round;stroke-opacity:1;stroke:#800080;" d="M 48.415466,27.558343 L 48.603728,27.428770 L 48.603728,28.428770 "/>
        <path style="fill:none;stroke-width:0.010000;stroke-linecap:round;stroke-linejoin:round;stroke-opacity:1;stroke:#800080;" d="M 54.415466,27.558343 L 54.603728,27.428770 L 54.603728,28.428770 "/>
        <path style="fill:none;stroke-width:0.010000;stroke-linecap:round;stroke-linejoin:round;stroke-opacity:1;stroke:#800080;" d="M 6.919277,27.956387 C 6.919277,27.615431 7.028016,27.444954 7.245496,27.444954 C 7.462976,27.444954 7.571716,27.615431 7.571716,27.956387 C 7.571716,28.178440 7.523443,28.328846 7.426899,28.407606 C 7.379134,28.446732 7.318667,28.466295 7.245496,28.466295 C 7.028016,28.466295 6.919277,28.296326 6.919277,27.956387 "/>
        <path style="fill:none;stroke-width:0.010000;stroke-linecap:round;stroke-linejoin:round;stroke-opacity:1;stroke:#800080;" d="M 6.415466,27.579100 L 6.603728,27.449527 L 6.603728,28.449527 "/>
        <path style="fill:none;stroke-width:0.010000;stroke-linecap:round;stroke-linejoin:round;stroke-opacity:1;stroke:#800080;" d="M 51.347290,31.153630 C 51.260400,31.146516 51.195868,31.131272 51.153693,31.107898 C 51.094242,31.074361 51.064516,31.020246 51.064516,30.945550 C 51.064516,30.869839 51.093480,30.807339 51.151406,30.758050 C 51.207301,30.710794 51.274120,30.687166 51.351864,30.687166 C 51.432656,30.687166 51.500238,30.710286 51.554608,30.756526 C 51.613043,30.805307 51.642260,30.869331 51.642260,30.948599 C 51.642260,31.077664 51.543937,31.146008 51.347290,31.153630 C 51.464160,31.168874 51.541904,31.186658 51.580522,31.206983 C 51.649120,31.244077 51.683419,31.310388 51.683419,31.405916 C 51.683419,31.497888 51.651152,31.572075 51.586620,31.628477 C 51.524628,31.681831 51.446884,31.708508 51.353388,31.708508 C 51.259384,31.708508 51.181640,31.681323 51.120156,31.626953 C 51.056132,31.570042 51.024120,31.495093 51.024120,31.402105 C 51.024120,31.307085 51.056132,31.242044 51.120156,31.206983 C 51.154201,31.188183 51.229912,31.170398 51.347290,31.153630 "/>
        <path style="fill:none;stroke-width:0.010000;stroke-linecap:round;stroke-linejoin:round;stroke-opacity:1;stroke:#800080;" d="M 57.720186,31.171160 L 57.720186,31.171160 C 57.699352,31.202664 57.643966,31.240774 57.554027,31.285489 C 57.464088,31.330205 57.398794,31.352563 57.358143,31.352563 C 57.268712,31.352563 57.196304,31.319788 57.140917,31.254239 C 57.088580,31.192756 57.062411,31.116282 57.062411,31.024819 C 57.062411,30.928274 57.090359,30.848498 57.146253,30.785489 C 57.204688,30.719941 57.281670,30.687166 57.377198,30.687166 C 57.503214,30.687166 57.595186,30.739504 57.653113,30.844178 C 57.697828,30.925987 57.720186,31.034981 57.720186,31.171160 C 57.720186,31.320550 57.697574,31.439961 57.652350,31.529392 C 57.592899,31.648802 57.496100,31.708508 57.361954,31.708508 C 57.283702,31.708508 57.219805,31.686658 57.170262,31.642959 C 57.120719,31.599260 57.090867,31.538538 57.080704,31.460794 "/>
        <path style="fill:none;stroke-width:0.010000;stroke-linecap:round;stroke-linejoin:round;stroke-opacity:1;stroke:#800080;" d="M 44.987718,30.702410 L 45.633298,30.702410 C 45.635330,30.702410 45.632917,30.713970 45.626057,30.737090 C 45.619197,30.760210 45.607129,30.787395 45.589852,30.818645 C 45.572576,30.849895 45.555173,30.880510 45.537642,30.910489 C 45.520112,30.940469 45.501565,30.974006 45.482002,31.011099 C 45.462439,31.048193 45.442749,31.083508 45.422932,31.117044 C 45.403115,31.150581 45.385203,31.187039 45.369197,31.226419 C 45.353191,31.265799 45.337058,31.309753 45.320798,31.358279 C 45.304537,31.406806 45.291707,31.451902 45.282307,31.493569 C 45.272906,31.535235 45.265920,31.578681 45.261346,31.623904 C 45.256773,31.669128 45.254555,31.691061 45.254487,31.691739 L 45.254487,31.691739 "/>
        <path style="fill:none;stroke-width:0.010000;stroke-linecap:round;stroke-linejoin:round;stroke-opacity:1;stroke:#800080;" d="M 38.991529,31.300733 C 39.031672,31.229595 39.081468,31.170652 39.140920,31.123904 C 39.210025,31.070042 39.280655,31.043111 39.352810,31.043111 C 39.441224,31.043111 39.513125,31.075632 39.568511,31.140672 C 39.621357,31.202156 39.647779,31.277613 39.647779,31.367044 C 39.647779,31.463081 39.619832,31.543111 39.563938,31.607136 C 39.505503,31.674717 39.429283,31.708508 39.335279,31.708508 C 39.103572,31.708508 38.987718,31.546922 38.987718,31.223752 C 38.987718,30.866028 39.107383,30.687166 39.346712,30.687166 C 39.425472,30.687166 39.489878,30.709270 39.539929,30.753477 C 39.589980,30.797685 39.620086,30.858660 39.630249,30.936404 "/>
        <path style="fill:none;stroke-width:0.010000;stroke-linecap:round;stroke-linejoin:round;stroke-opacity:1;stroke:#800080;" d="M 33.645309,30.702410 L 33.145309,30.702410 L 33.058419,31.229849 C 33.058419,31.227817 33.065405,31.220449 33.079379,31.207746 C 33.093352,31.195042 33.110756,31.181704 33.131589,31.167730 C 33.152423,31.153757 33.172748,31.140418 33.192565,31.127715 C 33.212382,31.115012 33.232580,31.104595 33.253159,31.096465 C 33.273739,31.088335 33.294445,31.080840 33.315278,31.073980 C 33.336112,31.067121 33.358723,31.061912 33.383114,31.058355 C 33.407504,31.054798 33.437102,31.057085 33.471909,31.065215 C 33.506716,31.073345 33.536823,31.083762 33.562230,31.096465 C 33.587636,31.109168 33.610121,31.128858 33.629684,31.155535 C 33.649247,31.182212 33.664872,31.212827 33.676559,31.247380 C 33.688246,31.281933 33.694089,31.314326 33.694089,31.344560 C 33.694089,31.374793 33.690659,31.407187 33.683800,31.441739 C 33.676940,31.476292 33.666523,31.505129 33.652550,31.528249 C 33.638576,31.551369 33.617108,31.577410 33.588144,31.606374 C 33.559181,31.635337 33.530217,31.657822 33.501254,31.673828 C 33.472290,31.689834 33.437611,31.700251 33.397214,31.705078 C 33.356818,31.709905 33.320995,31.710032 33.289745,31.705459 C 33.258495,31.700886 33.224958,31.691104 33.189135,31.676114 C 33.153312,31.661125 33.123205,31.638513 33.098815,31.608279 C 33.074425,31.578045 33.057021,31.548574 33.046605,31.519864 C 33.036188,31.491155 33.029836,31.469178 33.027550,31.453935 C 33.025263,31.438691 33.024154,31.431297 33.024120,31.431069 L 33.024120,31.431069 "/>
        <path style="fill:none;stroke-width:0.010000;stroke-linecap:round;stroke-linejoin:round;stroke-opacity:1;stroke:#800080;" d="M 27.570064,31.448599 L 26.897046,31.448599 L 27.462595,30.681831 L 27.462595,31.694788 "/>
        <path style="fill:none;stroke-width:0.010000;stroke-linecap:round;stroke-linejoin:round;stroke-opacity:1;stroke:#800080;" d="M 20.987718,31.431069 C 21.014649,31.616028 21.120848,31.708508 21.306316,31.708508 C 21.387617,31.708508 21.462566,31.681831 21.531163,31.628477 C 21.602810,31.572075 21.639141,31.505256 21.640157,31.428020 C 21.641174,31.310642 21.613989,31.232390 21.558602,31.193264 C 21.518460,31.164300 21.443257,31.149819 21.332993,31.149819 C 21.320289,31.149819 21.297932,31.150073 21.265920,31.150581 C 21.241021,31.150581 21.217139,31.150581 21.194273,31.150581 L 21.452657,31.150581 C 21.544121,31.109422 21.589852,31.040063 21.589852,30.942502 C 21.589852,30.868315 21.561397,30.806831 21.504487,30.758050 C 21.450625,30.711302 21.386092,30.687928 21.310889,30.687928 C 21.176743,30.687928 21.083501,30.739504 21.031163,30.842654 C 21.019476,30.866536 21.009060,30.900581 20.999913,30.944788 "/>
        <path style="fill:none;stroke-width:0.010000;stroke-linecap:round;stroke-linejoin:round;stroke-opacity:1;stroke:#800080;" d="M 14.993088,30.976800 C 15.002234,30.920906 15.013794,30.877969 15.027768,30.847989 C 15.041742,30.818010 15.060288,30.793238 15.083408,30.773675 C 15.106528,30.754112 15.134856,30.736201 15.168393,30.719941 C 15.201930,30.703681 15.234323,30.693772 15.265573,30.690215 C 15.296823,30.686658 15.329216,30.686658 15.362753,30.690215 C 15.396289,30.693772 15.428174,30.700759 15.458408,30.711175 C 15.488642,30.721592 15.518113,30.739504 15.546823,30.764910 C 15.575532,30.790317 15.596874,30.819788 15.610847,30.853325 C 15.624821,30.886861 15.631808,30.922176 15.631808,30.959270 C 15.631808,30.996363 15.626599,31.029900 15.616183,31.059880 C 15.605766,31.089859 15.586076,31.118188 15.557112,31.144864 C 15.528149,31.171541 15.496899,31.194153 15.463362,31.212700 C 15.429826,31.231247 15.394003,31.248015 15.355893,31.263005 C 15.317783,31.277995 15.287168,31.290698 15.264048,31.301114 C 15.240929,31.311531 15.214887,31.326648 15.185923,31.346465 C 15.156960,31.366282 15.127361,31.392959 15.097128,31.426496 C 15.066894,31.460032 15.042631,31.491790 15.024338,31.521770 C 15.006045,31.551750 14.992834,31.582364 14.984704,31.613614 C 14.976574,31.644864 14.972509,31.665063 14.972509,31.674209 C 14.972509,31.683355 14.971238,31.689199 14.968698,31.691739 L 15.638667,31.691739 "/>
        <path style="fill:none;stroke-width:0.010000;stroke-linecap:round;stroke-linejoin:round;stroke-opacity:1;stroke:#800080;" d="M 9.235871,30.821305 L 9.424133,30.691732 L 9.424133,31.691732 "/>
        <path style="fill:none;stroke-width:0.010000;stroke-linecap:round;stroke-linejoin:round;stroke-opacity:1;stroke:#800080;" d="M 4.824223,30.799718 L 4.824223,31.573189 L 4.824223,30.799718 "/>
        <path style="fill:none;stroke-width:0.010000;stroke-linecap:round;stroke-linejoin:round;stroke-opacity:1;stroke:#800080;" d="M 5.044120,31.573189 L 5.044120,30.796181 L 5.671975,31.574957 L 5.671975,30.790875 "/>
        <path style="fill:none;stroke-width:0.010000;stroke-linecap:round;stroke-linejoin:round;stroke-opacity:1;stroke:#800080;" d="M 6.490841,31.327942 C 6.470010,31.409298 6.432477,31.472378 6.378239,31.517183 C 6.322823,31.563167 6.253651,31.586158 6.170723,31.586158 C 6.011155,31.586158 5.903466,31.520130 5.847657,31.388074 C 5.820538,31.324012 5.806979,31.254839 5.806979,31.180558 C 5.806979,31.013916 5.866129,30.898170 5.984429,30.833321 C 6.041418,30.801879 6.103909,30.786158 6.171902,30.786158 C 6.248541,30.786158 6.313390,30.805515 6.366449,30.844228 C 6.419507,30.882941 6.456647,30.938848 6.477871,31.011951 "/>
        <path style="fill:none;stroke-width:0.010000;stroke-linecap:round;stroke-linejoin:round;stroke-opacity:1;stroke:#800080;" d="M 6.618180,30.799718 L 6.618180,31.573189 L 6.618180,31.208266 L 7.224813,31.208266 L 7.224813,31.573189 L 7.224813,30.799718 "/>
    </g>
    <g inkscape:groupmode="layer" id="81285c7f-821e-4a88-9607-ed0ef3bb4d43" inkscape:label="Rabbet groove cut on line">
        <path style="fill:none;stroke-width:0.010000;stroke-linecap:round;stroke-linejoin:round;stroke-opacity:1;stroke:#ff6600;" d="M 3.411885,17.570910 L 3.411885,24.070914 A 0.670000,0.670000 0 0,0 4.081885,24.740914 L 8.394771,24.740914 A 0.210003,0.210003 0 0,1 8.795783,24.784618 L 9.146982,25.135819 A 0.045000,0.045000 0 0,0 9.178802,25.149000 L 9.259097,25.148999 A 0.045000,0.045000 0 0,0 9.290917,25.135818 L 9.642100,24.784620 A 0.210004,0.210004 0 0,1 10.043112,24.740916 L 21.378950,24.740914 A 0.670000,0.670000 0 0,0 22.048950,24.070914 L 22.048950,17.570914 A 0.670000,0.670000 0 0,0 21.378950,16.900914 L 9.752079,16.900916 L 9.367445,17.285567 A 0.210000,0.210000 0 0,1 9.070457,17.285569 L 8.685805,16.900914 L 4.081884,16.900914 A 0.669998,0.669998 0 0,0 3.411885,17.570910 "/>
        <path style="fill:none;stroke-width:0.010000;stroke-linecap:round;stroke-linejoin:round;stroke-opacity:1;stroke:#ff6600;" d="M 21.378950,15.920000 A 0.670000,0.670000 0 0,0 22.048950,15.250000 L 22.048949,0.750000 A 0.670000,0.670000 0 0,0 21.378950,0.080000 L 9.752079,0.080002 L 9.367445,0.464652 A 0.210000,0.210000 0 0,1 9.070457,0.464655 L 8.685805,0.080000 L 4.081884,0.080000 A 0.670000,0.670000 0 0,0 3.411884,0.749999 L 3.411885,15.250000 A 0.670000,0.670000 0 0,0 4.081885,15.920000 L 8.394771,15.920000 A 0.210003,0.210003 0 0,1 8.795783,15.963704 L 9.146982,16.314905 A 0.045000,0.045000 0 0,0 9.178802,16.328085 L 9.259097,16.328085 A 0.045000,0.045000 0 0,0 9.290917,16.314904 L 9.642100,15.963706 A 0.210004,0.210004 0 0,1 10.043112,15.920001 L 21.378950,15.920000 "/>
        <path style="fill:none;stroke-width:0.010000;stroke-linecap:round;stroke-linejoin:round;stroke-opacity:1;stroke:#ff6600;" d="M 44.949707,24.441929 A 0.670000,0.670000 0 0,0 45.619708,23.771929 L 45.619707,9.271929 A 0.670000,0.670000 0 0,0 44.949707,8.601929 L 33.322836,8.601930 L 32.938202,8.986581 A 0.210000,0.210000 0 0,1 32.641214,8.986583 L 32.256562,8.601929 L 27.652642,8.601929 A 0.670000,0.670000 0 0,0 26.982642,9.271928 L 26.982643,23.771929 A 0.670000,0.670000 0 0,0 27.652643,24.441929 L 31.965529,24.441929 A 0.210003,0.210003 0 0,1 32.366541,24.485632 L 32.717740,24.836834 A 0.045000,0.045000 0 0,0 32.749560,24.850014 L 32.829855,24.850014 A 0.045000,0.045000 0 0,0 32.861675,24.836833 L 33.212858,24.485635 A 0.210004,0.210004 0 0,1 33.613870,24.441930 L 44.949707,24.441929 "/>
    </g>
</svg>
